<svg width="46" height="38" viewBox="0 0 46 38" fill="none" xmlns="http://www.w3.org/2000/svg">
<path d="M9.71446 1.42264C13.4561 1.28947 16.3409 2.72377 18.369 5.72554C20.0921 8.25785 21.0203 11.3948 21.1535 15.1365C21.3242 19.9334 20.2786 24.2934 18.0167 28.2163C15.6589 32.1426 12.0265 35.3459 7.11962 37.826L5.73224 35.2817C8.66197 33.9286 11.1823 31.8697 13.2933 29.1049C15.3084 26.3434 16.2664 23.5716 16.1674 20.7894C16.1264 19.6381 15.9466 18.6359 15.6281 17.7827C14.1375 19.0845 12.3848 19.7713 10.3701 19.843C7.77969 19.9352 5.59033 19.1485 3.80196 17.4831C1.92107 15.917 0.931111 13.7428 0.83209 10.9606C0.739898 8.37024 1.57279 6.1312 3.33076 4.24348C4.9962 2.45511 7.1241 1.51483 9.71446 1.42264ZM34.179 0.551935C37.9206 0.418768 40.8054 1.85307 42.8335 4.85483C44.5567 7.38715 45.4848 10.5241 45.618 14.2657C45.7887 19.0627 44.7431 23.4227 42.4812 27.3456C40.1234 31.2719 36.491 34.4752 31.5841 36.9553L30.1968 34.411C33.1265 33.0579 35.6468 30.999 37.7578 28.2342C39.7729 25.4727 40.7309 22.7009 40.6319 19.9187C40.5909 18.7674 40.4112 17.7652 40.0926 16.912C38.602 18.2138 36.8493 18.9006 34.8346 18.9723C32.2442 19.0645 30.0548 18.2778 28.2665 16.6124C26.3856 15.0463 25.3956 12.8721 25.2966 10.0899C25.2044 7.49954 26.0373 5.2605 27.7953 3.37278C29.4607 1.58441 31.5886 0.644127 34.179 0.551935Z" fill="#FBB500"/>
</svg>
